<?xml version="1.0" encoding="UTF-8" standalone="no"?>
<svg
   width="40"
   height="60"
   viewBox="0 0 40 60"
   fill="none"
   version="1.1"
   id="svg4"
   sodipodi:docname="lighting.svg"
   inkscape:version="1.1.2 (0a00cf5339, 2022-02-04)"
   xmlns:inkscape="http://www.inkscape.org/namespaces/inkscape"
   xmlns:sodipodi="http://sodipodi.sourceforge.net/DTD/sodipodi-0.dtd"
   xmlns="http://www.w3.org/2000/svg"
   xmlns:svg="http://www.w3.org/2000/svg">
  <defs
     id="defs8" />
  <sodipodi:namedview
     id="namedview6"
     pagecolor="#ffffff"
     bordercolor="#666666"
     borderopacity="1.0"
     inkscape:pageshadow="2"
     inkscape:pageopacity="0.0"
     inkscape:pagecheckerboard="0"
     showgrid="false"
     inkscape:zoom="8"
     inkscape:cx="9.8125"
     inkscape:cy="23.25"
     inkscape:window-width="1600"
     inkscape:window-height="827"
     inkscape:window-x="0"
     inkscape:window-y="0"
     inkscape:window-maximized="1"
     inkscape:current-layer="svg4" />
  <path
     d="M37.6953 24.7266H23.1389L35.7077 2.62665C36.0172 2.08283 36.0135 1.41495 35.699 0.873872C35.3845 0.332795 34.8055 0 34.1797 0H13.0859C12.3288 0 11.6563 0.48523 11.4178 1.20392L0.870938 32.9613C0.692868 33.4974 0.783048 34.086 1.11355 34.5443C1.44406 35.002 1.97415 35.2735 2.53903 35.2735H17.4562L7.95347 57.5524C7.61518 58.3457 7.90174 59.2667 8.6305 59.7277C9.35926 60.1887 10.3146 60.0527 10.8864 59.4077L39.0114 27.6499C40.013 26.5183 39.2082 24.7266 37.6953 24.7266ZM15.4388 48.9647L21.734 34.2055C22.2275 33.0483 21.3779 31.7578 20.1172 31.7578H4.97479L14.3544 3.51563H31.1575L18.5892 25.6151C17.9245 26.7838 18.7691 28.2422 20.1172 28.2422H33.7906L15.4388 48.9647Z"
     fill="#79B282"
     id="path2"
     style="fill:#ffffff" />
  <path
     style="fill:#ffffff;stroke-width:0.0931677"
     d="M 8.7419707,59.718001 C 8.5539365,59.618672 8.3171999,59.420995 8.2158893,59.278717 7.9690711,58.932093 7.8064779,58.296693 7.8828152,57.977093 c 0.034117,-0.142836 2.1987498,-5.269795 4.8102958,-11.393242 2.611546,-6.123447 4.769434,-11.185947 4.795309,-11.25 0.0374,-0.0926 -1.525226,-0.116879 -7.6259676,-0.118506 C 2.6165278,35.213413 2.1686978,35.203774 1.8167702,35.042168 1.6118012,34.948045 1.3723288,34.790212 1.2846091,34.691425 1.0521589,34.429649 0.83850932,33.870988 0.83850932,33.52494 c 0,-0.165506 2.41525548,-7.577179 5.36723428,-16.470383 C 11.492289,1.1281794 11.57837,0.87995208 11.931693,0.54312183 12.191625,0.2953228 12.426869,0.17282137 12.785943,0.09827796 13.134997,0.02581462 16.434104,0.00296963 23.946639,0.02099465 c 9.734859,0.0233571 10.689542,0.03908566 10.944665,0.180315 0.900015,0.49822528 1.22258,1.46729185 0.779303,2.34122185 -0.109428,0.2157381 -2.981322,5.2849688 -6.381988,11.2649575 -3.400666,5.979987 -6.183029,10.895748 -6.183029,10.923913 0,0.02816 3.361763,0.05121 7.470585,0.05121 7.422393,0 7.473218,0.0013 7.878818,0.197622 0.79981,0.387182 1.15233,1.342583 0.789934,2.140887 -0.220068,0.484775 -28.39474,32.332862 -28.848103,32.609319 -0.386505,0.235688 -1.1966649,0.229599 -1.6548533,-0.01244 z M 24.672021,38.634488 33.83162,28.276398 26.768295,28.229814 c -8.025452,-0.05293 -7.527411,-0.0015 -8.06095,-0.831796 -0.241535,-0.375862 -0.269489,-0.491724 -0.237644,-0.984975 0.03523,-0.545618 0.188242,-0.82635 6.388785,-11.721311 3.493982,-6.1392679 6.352694,-11.1810269 6.352694,-11.2039089 0,-0.022882 -3.803547,-0.030901 -8.452328,-0.017819 L 14.306526,3.4937888 9.6681621,17.468944 C 7.1170624,25.15528 5.006589,31.516539 4.9782213,31.605075 c -0.048547,0.151517 0.4072613,0.162467 7.7568397,0.186336 l 7.808417,0.02536 0.374272,0.214592 c 0.518236,0.297136 0.813622,0.760894 0.862865,1.354703 0.03868,0.466394 -0.0838,0.776816 -3.057717,7.750205 -1.703904,3.995393 -3.155318,7.400609 -3.225368,7.567146 -0.07005,0.166537 -0.09535,0.299728 -0.05623,0.295979 0.03912,-0.0037 4.192946,-4.667957 9.230725,-10.364907 z"
     id="path84" />
  <path
     style="fill:#ffffff;stroke-width:0.011646"
     d="m 3.63657,24.651592 c 0.00304,-0.008 0.8928655,-2.687306 1.977397,-5.953999 1.0845315,-3.266692 1.9731135,-5.941214 1.9746266,-5.943382 0.00151,-0.0022 0.01046,-0.0022 0.019881,0 0.013409,0.0031 -0.022673,0.124121 -0.1660814,0.557124 -0.1007665,0.304251 -0.6605672,1.991751 -1.2440017,3.75 -0.9791535,2.950796 -1.9395093,5.855804 -2.3455609,7.095155 -0.1571704,0.479715 -0.1684812,0.50937 -0.194333,0.50951 -0.01718,1.16e-4 -0.025384,-0.0053 -0.021928,-0.01441 z"
     id="path123" />
</svg>
